<?xml version="1.0" encoding="UTF-8"?>
<!DOCTYPE svg PUBLIC "-//W3C//DTD SVG 1.1//EN" "http://www.w3.org/Graphics/SVG/1.1/DTD/svg11.dtd">
<!-- Creator: CorelDRAW -->
<svg xmlns="http://www.w3.org/2000/svg" xml:space="preserve" width="210mm" height="297mm" version="1.1" style="shape-rendering:geometricPrecision; text-rendering:geometricPrecision; image-rendering:optimizeQuality; fill-rule:evenodd; clip-rule:evenodd"
viewBox="0 0 21000 29700"
 xmlns:xlink="http://www.w3.org/1999/xlink"
 xmlns:xodm="http://www.corel.com/coreldraw/odm/2003">
 <defs>
  <style type="text/css">
   <![CDATA[
    .fil0 {fill:#373535}
    .fil1 {fill:#373535;fill-rule:nonzero}
   ]]>
  </style>
 </defs>
 <g id="Слой_x0020_1">
  <metadata id="CorelCorpID_0Corel-Layer"/>
  <path class="fil0" d="M6343.1 10900.47c581.77,-542.38 1637.3,-1526.39 4501.73,-1445.51 1339.51,-53.05 3174.15,1052.16 3302.37,1578.24 -163.59,194.52 -604.78,652.52 -1061,928.37 -456.22,275.85 -932.79,450.93 -1114.06,503.98 39.8,-137.06 119.36,-498.69 119.36,-848.81 0,-350.12 -221.04,-711.75 -331.55,-848.79 110.51,13.26 408.49,58.35 716.17,132.62 307.68,74.27 534.91,163.57 610.08,198.94 -322.72,-340.4 -1241.38,-981.42 -2758.6,-981.42 -1976.1,0 -3938.95,968.16 -4814.27,2347.46 570.28,839.94 2336.84,2519.86 4840.81,2519.86 2453.53,0 4040.61,-1679.92 4495.95,-2519.86 -450.93,503.98 -1869.99,1780.01 -4628.59,1551.7 -1923.05,-159.15 -3063.64,-1259.95 -3249.3,-1551.7 36.23,-43.98 68.9,-88.48 102.69,-134.44 139.38,-189.7 297.42,-404.78 799.15,-714.37 477.12,-294.38 1122.89,-557.02 1233.4,-570.28 -2.32,11.41 -4.78,23.31 -7.35,35.69 -41.25,198.59 -108.11,520.49 -45.69,932.47 45.87,302.76 260.82,614.49 331.57,716.17 -226.69,0 -441.4,-49.66 -700.96,-109.72 -13.78,-3.17 -27.7,-6.4 -41.75,-9.63 -89.54,-20.66 -229.21,-64 -352.03,-102.13 -113.64,-35.24 -212.91,-66.04 -244.76,-70.3 358.08,309.46 1389.9,928.37 2652.47,928.37 2654.35,0 3724.57,-1204.96 4584.41,-2173.08 68.9,-77.57 136.44,-153.62 203.36,-227.41 -596.82,-875.33 -2071.61,-2493.35 -4787.77,-2493.35 -2307.67,0 -4102.52,1671.07 -4456.18,2519.87 31.92,-29.15 65.27,-60.24 100.34,-92.94zm4223.23 1923.14c600.61,0 1087.52,-486.89 1087.52,-1087.52 0,-600.6 -486.91,-1087.51 -1087.52,-1087.51 -600.63,0 -1087.54,486.91 -1087.54,1087.51 0,600.63 486.91,1087.52 1087.54,1087.52z"/>
  <path class="fil0" d="M11307.64 11515.03c-67.36,190.61 -249.13,327.19 -462.81,327.19 -271.01,0 -490.72,-219.71 -490.72,-490.73 0,-171.9 88.4,-323.14 222.2,-410.78 -7.73,-0.23 -15.48,-0.34 -23.26,-0.34 -432.15,0 -782.48,350.32 -782.48,782.49 0,432.15 350.33,782.48 782.48,782.48 432.14,0 782.48,-350.33 782.48,-782.48 0,-71.96 -9.71,-141.65 -27.89,-207.83z"/>
  <path class="fil1" d="M15157.51 18129.7c62.13,112.44 131.66,210.07 208.6,292.92 79.88,82.84 165.68,146.47 257.41,190.84 94.67,44.4 193.81,66.57 297.37,66.57 109.46,0 199.71,-26.62 270.72,-79.88 71.02,-56.22 106.52,-131.68 106.52,-226.35 0,-79.88 -20.71,-143.51 -62.15,-190.84 -41.41,-50.3 -107.97,-97.63 -199.71,-142.03 -91.73,-44.37 -213.04,-94.67 -363.93,-150.89 -73.98,-26.62 -159.78,-63.61 -257.41,-110.97 -94.7,-47.33 -184.92,-107.98 -270.73,-181.95 -85.8,-76.92 -156.81,-168.65 -213.04,-275.17 -56.22,-109.49 -84.32,-241.14 -84.32,-395 0,-183.43 47.33,-341.73 142.03,-474.9 97.63,-133.14 227.8,-233.73 390.55,-301.78 165.68,-71.02 349.14,-106.52 550.33,-106.52 207.12,0 386.14,34.02 537.03,102.07 153.85,68.05 281.09,153.86 381.69,257.42 100.59,103.55 177.53,208.59 230.77,315.12l-572.51 319.53c-44.4,-73.95 -96.18,-137.58 -155.34,-190.81 -56.22,-56.23 -119.83,-99.14 -190.84,-128.72 -68.05,-32.55 -142.03,-48.82 -221.91,-48.82 -106.52,0 -187.88,23.65 -244.1,71.01 -56.23,44.37 -84.32,100.6 -84.32,168.65 0,71.01 26.61,133.14 79.87,186.4 56.23,53.26 134.62,102.07 235.22,146.47 103.56,44.37 227.83,91.71 372.82,142 109.46,41.44 211.54,90.25 306.23,146.48 94.67,53.26 177.54,118.34 248.55,195.29 73.95,76.91 131.66,165.68 173.09,266.27 41.41,100.6 62.13,216.01 62.13,346.18 0,156.82 -32.55,297.37 -97.64,421.64 -62.15,121.31 -147.95,223.39 -257.41,306.23 -106.52,82.84 -229.31,144.97 -368.38,186.4 -136.1,44.37 -276.65,66.57 -421.64,66.57 -201.19,0 -389.07,-35.51 -563.64,-106.52 -171.61,-73.95 -321.02,-173.09 -448.26,-297.34 -127.24,-124.27 -226.35,-260.38 -297.36,-408.33l523.71 -377.24z"/>
  <path class="fil1" d="M11681.66 16114.76l750.06 0 0 2032.69c0,156.82 41.41,284.03 124.25,381.69 82.87,97.63 207.12,146.44 372.83,146.44 168.64,0 294.4,-48.81 377.24,-146.44 82.84,-97.66 124.27,-224.87 124.27,-381.69l0 -2032.69 750.04 0 0 2085.95c0,195.26 -32.54,365.42 -97.63,510.38 -62.15,144.99 -150.89,264.82 -266.3,359.49 -112.42,91.73 -245.56,161.26 -399.44,208.6 -150.89,47.33 -313.61,71.01 -488.18,71.01 -174.58,0 -337.32,-23.68 -488.21,-71.01 -150.9,-47.34 -284.03,-116.87 -399.44,-208.6 -112.43,-94.67 -201.19,-214.5 -266.28,-359.49 -62.15,-144.96 -93.21,-315.12 -93.21,-510.38l0 -2085.95z"/>
  <path class="fil1" d="M9271.72 18129.7c62.13,112.44 131.66,210.07 208.6,292.92 79.88,82.84 165.68,146.47 257.42,190.84 94.66,44.4 193.8,66.57 297.36,66.57 109.46,0 199.71,-26.62 270.72,-79.88 71.02,-56.22 106.52,-131.68 106.52,-226.35 0,-79.88 -20.71,-143.51 -62.15,-190.84 -41.4,-50.3 -107.97,-97.63 -199.7,-142.03 -91.74,-44.37 -213.05,-94.67 -363.94,-150.89 -73.98,-26.62 -159.78,-63.61 -257.41,-110.97 -94.7,-47.33 -184.92,-107.98 -270.72,-181.95 -85.81,-76.92 -156.82,-168.65 -213.05,-275.17 -56.22,-109.49 -84.32,-241.14 -84.32,-395 0,-183.43 47.33,-341.73 142.03,-474.9 97.63,-133.14 227.81,-233.73 390.55,-301.78 165.68,-71.02 349.14,-106.52 550.33,-106.52 207.12,0 386.14,34.02 537.03,102.07 153.85,68.05 281.09,153.86 381.69,257.42 100.59,103.55 177.51,208.59 230.77,315.12l-572.51 319.53c-44.4,-73.95 -96.17,-137.58 -155.34,-190.81 -56.22,-56.23 -119.83,-99.14 -190.84,-128.72 -68.05,-32.55 -142.03,-48.82 -221.91,-48.82 -106.52,0 -187.9,23.65 -244.1,71.01 -56.22,44.37 -84.32,100.6 -84.32,168.65 0,71.01 26.61,133.14 79.87,186.4 56.23,53.26 134.62,102.07 235.22,146.47 103.56,44.37 227.83,91.71 372.82,142 109.46,41.44 211.54,90.25 306.23,146.48 94.67,53.26 177.54,118.34 248.53,195.29 73.97,76.91 131.68,165.68 173.09,266.27 41.43,100.6 62.15,216.01 62.15,346.18 0,156.82 -32.55,297.37 -97.66,421.64 -62.13,121.31 -147.93,223.39 -257.41,306.23 -106.5,82.84 -229.29,144.97 -368.36,186.4 -136.1,44.37 -276.65,66.57 -421.64,66.57 -201.19,0 -389.07,-35.51 -563.64,-106.52 -171.61,-73.95 -321.02,-173.09 -448.26,-297.34 -127.23,-124.27 -226.35,-260.38 -297.36,-408.33l523.71 -377.24z"/>
  <polygon class="fil1" points="7508.38,16114.76 8271.73,16114.76 8271.73,19221.5 7508.38,19221.5 "/>
  <polygon class="fil1" points="5545.13,17969.91 6304.06,16114.76 7182.81,16114.76 5545.13,19416.76 3911.87,16114.76 4786.2,16114.76 "/>
  <path class="fil1" d="M4474.1 20205.72l0 593.52 97.41 0 0 322.89 -106.43 0 0 -223.68 -535.79 0 0 -692.73 106.44 0 0 593.52 331.93 0 0 -593.52 106.44 0zm544.35 707.15c-66.75,0 -124.33,-14.73 -172.74,-44.18 -48.1,-29.77 -85.23,-71.28 -111.39,-124.49 -25.86,-53.52 -38.79,-115.75 -38.79,-186.71 0,-70.97 12.93,-133.49 38.79,-187.62 26.16,-54.43 62.54,-96.81 109.14,-127.19 46.9,-30.66 101.62,-45.98 164.16,-45.98 36.08,0 71.71,6.01 106.89,18.04 35.18,12.02 67.2,31.57 96.06,58.64 28.86,26.75 51.86,62.23 69,106.41 17.14,44.21 25.71,98.64 25.71,163.28l0 45.08 -533.98 0 0 -91.99 425.74 0c0,-39.08 -7.82,-73.96 -23.45,-104.65 -15.34,-30.66 -37.28,-54.85 -65.85,-72.6 -28.26,-17.73 -61.63,-26.62 -100.12,-26.62 -42.39,0 -79.07,10.53 -110.04,31.6 -30.67,20.74 -54.27,47.78 -70.81,81.17 -16.53,33.36 -24.8,69.13 -24.8,107.34l0 61.33c0,52.31 9.02,96.65 27.06,133.03 18.34,36.09 43.75,63.61 76.22,82.55 32.47,18.63 70.2,27.94 113.2,27.94 27.96,0 53.21,-3.89 75.76,-11.72 22.85,-8.12 42.55,-20.13 59.08,-36.06 16.54,-16.25 29.32,-36.38 38.34,-60.46l102.83 28.87c-10.83,34.9 -29.02,65.56 -54.58,92.02 -25.55,26.14 -57.12,46.59 -94.71,61.33 -37.58,14.42 -79.82,21.64 -126.72,21.64zm912.36 -409.49l0 99.22 -382.44 0 0 -99.22 382.44 0zm-357.19 -297.66l0 692.73 -106.43 0 0 -692.73 106.43 0zm438.37 0l0 692.73 -106.44 0 0 -692.73 106.44 0zm100.12 99.22l0 -99.22 562.84 0 0 99.22 -227.3 0 0 593.51 -106.44 0 0 -593.51 -229.1 0zm718.09 853.28l0 -952.5 102.82 0 0 110.04 12.65 0c7.8,-12.04 18.62,-27.36 32.46,-46.01 14.13,-18.94 34.26,-35.77 60.43,-50.51 26.46,-15.03 62.23,-22.54 107.34,-22.54 58.32,0 109.75,14.58 154.23,43.74 44.5,29.15 79.24,70.51 104.19,124.03 24.95,53.5 37.44,116.66 37.44,189.42 0,73.37 -12.49,136.95 -37.44,190.76 -24.95,53.53 -59.53,95.01 -103.74,124.49 -44.19,29.16 -95.15,43.73 -152.88,43.73 -44.5,0 -80.11,-7.35 -106.89,-22.09 -26.75,-15.03 -47.36,-32.01 -61.78,-50.96 -14.42,-19.26 -25.56,-35.19 -33.36,-47.81l-9.03 0 0 366.21 -106.44 0zm104.65 -606.13c0,52.31 7.64,98.45 22.99,138.45 15.32,39.69 37.73,70.81 67.2,93.35 29.45,22.25 65.54,33.36 108.24,33.36 44.48,0 81.63,-11.72 111.39,-35.16 30.06,-23.76 52.6,-55.61 67.66,-95.62 15.32,-40.3 22.99,-85.09 22.99,-134.38 0,-48.71 -7.52,-92.61 -22.54,-131.71 -14.74,-39.37 -37.15,-70.49 -67.21,-93.35 -29.76,-23.15 -67.2,-34.74 -112.29,-34.74 -43.31,0 -79.69,10.98 -109.14,32.94 -29.47,21.65 -51.72,52.02 -66.75,91.1 -15.03,38.79 -22.54,84.03 -22.54,135.76zm1307.86 360.78c-62.52,0 -117.4,-14.89 -164.6,-44.66 -46.91,-29.76 -83.58,-71.38 -110.04,-124.91 -26.17,-53.52 -39.24,-116.04 -39.24,-187.61 0,-72.16 13.07,-135.15 39.24,-188.97 26.46,-53.82 63.13,-95.62 110.04,-125.38 47.2,-29.77 102.08,-44.64 164.6,-44.64 62.54,0 117.26,14.87 164.17,44.64 47.2,29.76 83.87,71.56 110.04,125.38 26.46,53.82 39.69,116.81 39.69,188.97 0,71.57 -13.23,134.09 -39.69,187.61 -26.17,53.53 -62.84,95.15 -110.04,124.91 -46.91,29.77 -101.63,44.66 -164.17,44.66zm0 -95.62c47.52,0 86.6,-12.17 117.26,-36.51 30.67,-24.37 53.37,-56.38 68.1,-96.07 14.74,-39.69 22.1,-82.68 22.1,-128.98 0,-46.31 -7.36,-89.46 -22.1,-129.44 -14.73,-39.98 -37.43,-72.31 -68.1,-96.97 -30.66,-24.66 -69.74,-36.99 -117.26,-36.99 -47.5,0 -86.57,12.33 -117.24,36.99 -30.69,24.66 -53.37,56.99 -68.1,96.97 -14.74,39.98 -22.12,83.13 -22.12,129.44 0,46.3 7.38,89.29 22.12,128.98 14.73,39.69 37.41,71.7 68.1,96.07 30.67,24.34 69.74,36.51 117.24,36.51zm527.23 -611.53l165.95 283.21 165.97 -283.21 122.66 0 -223.68 346.37 223.68 346.36 -122.66 0 -165.97 -268.81 -165.95 268.81 -122.68 0 220.08 -346.36 -220.08 -346.37 122.68 0zm606.45 952.5l0 -952.5 102.85 0 0 110.04 12.62 0c7.8,-12.04 18.65,-27.36 32.46,-46.01 14.13,-18.94 34.29,-35.77 60.43,-50.51 26.46,-15.03 62.26,-22.54 107.34,-22.54 58.35,0 109.75,14.58 154.26,43.74 44.5,29.15 79.21,70.51 104.16,124.03 24.95,53.5 37.44,116.66 37.44,189.42 0,73.37 -12.49,136.95 -37.44,190.76 -24.95,53.53 -59.53,95.01 -103.71,124.49 -44.22,29.16 -95.17,43.73 -152.91,43.73 -44.47,0 -80.11,-7.35 -106.86,-22.09 -26.78,-15.03 -47.36,-32.01 -61.81,-50.96 -14.42,-19.26 -25.56,-35.19 -33.36,-47.81l-9.02 0 0 366.21 -106.45 0zm104.65 -606.13c0,52.31 7.67,98.45 22.99,138.45 15.34,39.69 37.73,70.81 67.2,93.35 29.48,22.25 65.54,33.36 108.24,33.36 44.51,0 81.63,-11.72 111.39,-35.16 30.09,-23.76 52.63,-55.61 67.66,-95.62 15.34,-40.3 22.99,-85.09 22.99,-134.38 0,-48.71 -7.51,-92.61 -22.54,-131.71 -14.74,-39.37 -37.12,-70.49 -67.21,-93.35 -29.76,-23.15 -67.2,-34.74 -112.29,-34.74 -43.28,0 -79.66,10.98 -109.14,32.94 -29.47,21.65 -51.72,52.02 -66.75,91.1 -15.03,38.79 -22.54,84.03 -22.54,135.76zm873.12 362.58c-43.89,0 -83.74,-8.25 -119.51,-24.79 -35.77,-16.85 -64.19,-41.03 -85.25,-72.63 -21.03,-31.85 -31.56,-70.35 -31.56,-115.43 0,-39.69 7.83,-71.86 23.44,-96.52 15.63,-24.95 36.54,-44.51 62.7,-58.64 26.14,-14.12 55.01,-24.65 86.6,-31.56 31.86,-7.22 63.87,-12.94 96.05,-17.15 42.09,-5.39 76.22,-9.47 102.39,-12.17 26.46,-3.01 45.69,-7.96 57.71,-14.89 12.33,-6.91 18.49,-18.92 18.49,-36.07l0 -3.62c0,-44.48 -12.17,-79.06 -36.51,-103.72 -24.08,-24.66 -60.59,-36.99 -109.62,-36.99 -50.8,0 -90.65,11.14 -119.51,33.4 -28.84,22.25 -49.16,45.98 -60.88,71.25l-101.02 -36.09c18.04,-42.1 42.09,-74.85 72.15,-98.32 30.38,-23.73 63.45,-40.27 99.22,-49.61 36.09,-9.6 71.57,-14.42 106.44,-14.42 22.25,0 47.81,2.7 76.68,8.12 29.16,5.11 57.28,15.77 84.32,32.02 27.36,16.22 50.06,40.74 68.1,73.5 18.05,32.78 27.07,76.67 27.07,131.71l0 456.4 -106.44 0 0 -93.82 -5.4 0c-7.22,15.03 -19.26,31.12 -36.09,48.26 -16.82,17.15 -39.23,31.73 -67.2,43.74 -27.97,12.04 -62.07,18.04 -102.37,18.04zm16.25 -95.59c42.07,0 77.55,-8.28 106.41,-24.82 29.19,-16.53 51.12,-37.89 65.86,-64.03 15.03,-26.17 22.54,-53.68 22.54,-82.55l0 -97.42c-4.5,5.43 -14.42,10.37 -29.77,14.9 -15.02,4.21 -32.46,7.96 -52.3,11.27 -19.56,3.02 -38.63,5.72 -57.29,8.12 -18.33,2.09 -33.23,3.92 -44.63,5.4 -27.68,3.62 -53.53,9.47 -77.58,17.6 -23.76,7.83 -42.99,19.71 -57.73,35.63 -14.42,15.64 -21.64,36.99 -21.64,64.03 0,36.99 13.68,64.96 41.03,83.9 27.65,18.63 62.68,27.97 105.1,27.97zm959.14 -315.7l0 99.22 -382.46 0 0 -99.22 382.46 0zm-357.19 -297.66l0 692.73 -106.44 0 0 -692.73 106.44 0zm438.36 0l0 692.73 -106.44 0 0 -692.73 106.44 0zm286.39 250.75l198.43 0c81.18,0 143.28,20.58 186.27,61.78 43,41.19 64.48,93.37 64.48,156.5 0,41.49 -9.6,79.22 -28.87,113.19 -19.23,33.68 -47.49,60.59 -84.77,80.75 -37.28,19.84 -83,29.76 -137.11,29.76l-290.43 0 0 -692.73 106.42 0 0 593.52 184.01 0c42.1,0 76.68,-11.14 103.72,-33.39 27.07,-22.26 40.61,-50.8 40.61,-85.68 0,-36.69 -13.54,-66.62 -40.61,-89.77 -27.04,-23.15 -61.62,-34.71 -103.72,-34.71l-198.43 0 0 -99.22zm559.22 441.98l0 -692.73 106.44 0 0 692.73 -106.44 0zm615.16 -176.79l113.66 0c2.41,31.27 16.54,55.01 42.39,71.25 26.17,16.25 60.14,24.34 101.92,24.34 42.7,0 79.24,-8.7 109.59,-26.14 30.37,-17.75 45.56,-46.3 45.56,-85.7 0,-23.15 -5.72,-43.28 -17.15,-60.43 -11.43,-17.43 -27.49,-30.95 -48.26,-40.58 -20.74,-9.63 -45.24,-14.45 -73.5,-14.45l-119.06 0 0 -95.59 119.06 0c42.39,0 73.66,-9.63 93.8,-28.87 20.45,-19.23 30.69,-43.29 30.69,-72.15 0,-30.98 -10.98,-55.78 -32.94,-74.43 -21.94,-18.94 -53.05,-28.42 -93.35,-28.42 -40.59,0 -74.43,9.19 -101.47,27.52 -27.06,18.05 -41.35,41.36 -42.86,69.9l-111.84 0c1.19,-37.28 12.62,-70.19 34.27,-98.76 21.67,-28.87 51.11,-51.41 88.39,-67.66 37.28,-16.53 79.99,-24.79 128.09,-24.79 48.71,0 90.96,8.57 126.73,25.69 36.09,16.85 63.9,39.85 83.43,69 19.84,28.87 29.76,61.65 29.76,98.32 0,39.11 -10.95,70.67 -32.91,94.72 -21.94,24.05 -49.45,41.2 -82.53,51.41l0 7.23c26.15,1.8 48.85,10.21 68.11,25.24 19.52,14.73 34.71,34.13 45.53,58.18 10.82,23.76 16.25,50.06 16.25,78.92 0,42.1 -11.27,78.77 -33.82,110.04 -22.56,30.99 -53.52,55.04 -92.92,72.16 -39.37,16.85 -84.32,25.26 -134.83,25.26 -49.03,0 -92.92,-7.96 -131.71,-23.89 -38.79,-16.24 -69.58,-38.65 -92.44,-67.2 -22.55,-28.87 -34.43,-62.23 -35.64,-100.12zm670.87 436.56l0 -952.5 102.82 0 0 110.04 12.62 0c7.83,-12.04 18.66,-27.36 32.47,-46.01 14.15,-18.94 34.29,-35.77 60.45,-50.51 26.46,-15.03 62.23,-22.54 107.32,-22.54 58.34,0 109.75,14.58 154.25,43.74 44.5,29.15 79.22,70.51 104.17,124.03 24.97,53.5 37.44,116.66 37.44,189.42 0,73.37 -12.47,136.95 -37.44,190.76 -24.95,53.53 -59.53,95.01 -103.72,124.49 -44.21,29.16 -95.17,43.73 -152.88,43.73 -44.5,0 -80.14,-7.35 -106.89,-22.09 -26.77,-15.03 -47.36,-32.01 -61.78,-50.96 -14.44,-19.26 -25.56,-35.19 -33.39,-47.81l-9.02 0 0 366.21 -106.42 0zm104.62 -606.13c0,52.31 7.67,98.45 22.99,138.45 15.35,39.69 37.76,70.81 67.21,93.35 29.47,22.25 65.53,33.36 108.24,33.36 44.5,0 81.62,-11.72 111.39,-35.16 30.08,-23.76 52.62,-55.61 67.65,-95.62 15.35,-40.3 22.99,-85.09 22.99,-134.38 0,-48.71 -7.51,-92.61 -22.54,-131.71 -14.74,-39.37 -37.12,-70.49 -67.2,-93.35 -29.77,-23.15 -67.18,-34.74 -112.29,-34.74 -43.29,0 -79.67,10.98 -109.14,32.94 -29.48,21.65 -51.7,52.02 -66.76,91.1 -15.03,38.79 -22.54,84.03 -22.54,135.76zm959.72 360.78c-66.75,0 -124.32,-14.73 -172.74,-44.18 -48.1,-29.77 -85.22,-71.28 -111.39,-124.49 -25.85,-53.52 -38.79,-115.75 -38.79,-186.71 0,-70.97 12.94,-133.49 38.79,-187.62 26.17,-54.43 62.55,-96.81 109.14,-127.19 46.91,-30.66 101.62,-45.98 164.17,-45.98 36.07,0 71.7,6.01 106.87,18.04 35.19,12.02 67.2,31.57 96.07,58.64 28.86,26.75 51.86,62.23 69,106.41 17.15,44.21 25.72,98.64 25.72,163.28l0 45.08 -533.98 0 0 -91.99 425.74 0c0,-39.08 -7.83,-73.96 -23.47,-104.65 -15.32,-30.66 -37.28,-54.85 -65.83,-72.6 -28.26,-17.73 -61.65,-26.62 -100.12,-26.62 -42.41,0 -79.08,10.53 -110.04,31.6 -30.66,20.74 -54.29,47.78 -70.83,81.17 -16.53,33.36 -24.79,69.13 -24.79,107.34l0 61.33c0,52.31 9.02,96.65 27.07,133.03 18.33,36.09 43.73,63.61 76.2,82.55 32.49,18.63 70.22,27.94 113.21,27.94 27.97,0 53.21,-3.89 75.75,-11.72 22.86,-8.12 42.55,-20.13 59.09,-36.06 16.53,-16.25 29.31,-36.38 38.33,-60.46l102.85 28.87c-10.82,34.9 -29.03,65.56 -54.59,92.02 -25.56,26.14 -57.12,46.59 -94.69,61.33 -37.6,14.42 -79.83,21.64 -126.74,21.64zm912.37 -409.49l0 99.22 -382.46 0 0 -99.22 382.46 0zm-357.19 -297.66l0 692.73 -106.44 0 0 -692.73 106.44 0zm438.36 0l0 692.73 -106.44 0 0 -692.73 106.44 0zm300.81 535.78l333.74 -535.78 122.66 0 0 692.73 -106.41 0 0 -535.78 -331.95 535.78 -124.46 0 0 -692.73 106.42 0 0 535.78zm1068.07 156.95l0 -595.31 -184 0c-41.51,0 -74.13,9.61 -97.87,28.84 -23.75,19.26 -35.63,45.72 -35.63,79.38 0,33.07 10.68,59.08 32.01,78.02 21.67,18.95 51.28,28.42 88.85,28.42l223.7 0 0 99.22 -223.7 0c-46.89,0 -87.34,-8.26 -121.31,-24.79 -33.98,-16.54 -60.14,-40.14 -78.48,-70.81 -18.34,-30.98 -27.52,-67.65 -27.52,-110.06 0,-42.68 9.63,-79.38 28.87,-110.04 19.26,-30.67 46.75,-54.27 82.55,-70.81 36.06,-16.53 78.92,-24.79 128.53,-24.79l285.01 0 0 692.73 -101.01 0zm-461.81 0l196.61 -344.56 115.47 0 -196.64 344.56 -115.44 0z"/>
 </g>
</svg>
