<svg width="505" height="482" viewBox="0 0 505 482" fill="none" xmlns="http://www.w3.org/2000/svg">
<path fill-rule="evenodd" clip-rule="evenodd" d="M95.3888 91.7265C117.377 71.2272 157.271 34.036 265.533 37.0931C316.16 35.0881 385.501 76.8596 390.347 96.7429C384.164 104.095 367.489 121.405 350.246 131.831C333.003 142.257 314.991 148.874 308.14 150.879C309.644 145.699 312.651 132.031 312.651 118.798C312.651 105.565 304.297 91.8974 300.12 86.7177C304.297 87.219 315.559 88.9232 327.188 91.7303C338.817 94.5373 347.405 97.9125 350.246 99.2492C338.049 86.3835 303.328 62.156 245.984 62.156C171.297 62.156 97.1104 98.7479 64.0273 150.879C85.5815 182.625 152.349 246.118 246.987 246.118C339.719 246.118 399.703 182.625 416.913 150.879C399.87 169.927 346.236 218.155 241.974 209.526C169.292 203.511 126.183 161.906 119.166 150.879C120.535 149.217 121.77 147.535 123.047 145.798C128.315 138.628 134.288 130.499 153.251 118.798C171.284 107.672 195.691 97.7454 199.868 97.2441C199.78 97.6754 199.687 98.1251 199.59 98.5929C198.031 106.099 195.504 118.265 197.863 133.836C199.597 145.279 207.721 157.061 210.395 160.904C201.827 160.904 193.712 159.027 183.902 156.757C183.381 156.637 182.855 156.515 182.324 156.393C178.94 155.612 173.661 153.974 169.019 152.533C164.724 151.201 160.972 150.037 159.768 149.876C173.302 161.572 212.3 184.964 260.019 184.964C360.341 184.964 400.79 139.422 433.288 102.832C435.892 99.9002 438.445 97.0256 440.974 94.2366C418.417 61.1535 362.677 0 260.019 0C172.8 0 104.963 63.1586 91.5966 95.2391C92.8029 94.1372 94.0633 92.9622 95.3888 91.7265ZM255.007 164.412C277.707 164.412 296.11 146.01 296.11 123.309C296.11 100.609 277.707 82.2061 255.007 82.2061C232.306 82.2061 213.903 100.609 213.903 123.309C213.903 146.01 232.306 164.412 255.007 164.412Z" fill="white"/>
<path fill-rule="evenodd" clip-rule="evenodd" d="M283.025 114.954C280.479 122.158 273.609 127.32 265.533 127.32C255.29 127.32 246.986 119.016 246.986 108.773C246.986 102.276 250.327 96.5596 255.384 93.2472C255.092 93.2387 254.799 93.2344 254.505 93.2344C238.172 93.2344 224.931 106.475 224.931 122.809C224.931 139.142 238.172 152.383 254.505 152.383C270.838 152.383 284.079 139.142 284.079 122.809C284.079 120.089 283.712 117.455 283.025 114.954Z" fill="white"/>
<path d="M428.532 364.957C430.88 369.207 433.508 372.897 436.416 376.028C439.435 379.159 442.678 381.564 446.145 383.241C449.723 384.919 453.47 385.757 457.384 385.757C461.521 385.757 464.932 384.751 467.616 382.738C470.3 380.613 471.642 377.761 471.642 374.183C471.642 371.164 470.859 368.759 469.293 366.97C467.728 365.069 465.212 363.28 461.745 361.602C458.278 359.925 453.693 358.024 447.99 355.899C445.194 354.893 441.951 353.495 438.261 351.705C434.682 349.916 431.272 347.624 428.029 344.828C424.786 341.921 422.102 338.454 419.977 334.428C417.852 330.29 416.79 325.314 416.79 319.499C416.79 312.566 418.579 306.583 422.158 301.55C425.848 296.518 430.768 292.716 436.919 290.144C443.181 287.46 450.115 286.118 457.719 286.118C465.547 286.118 472.313 287.404 478.016 289.976C483.831 292.548 488.64 295.791 492.442 299.705C496.244 303.619 499.152 307.589 501.164 311.615L479.526 323.692C477.848 320.897 475.891 318.492 473.655 316.48C471.53 314.355 469.126 312.733 466.442 311.615C463.87 310.385 461.074 309.77 458.055 309.77C454.029 309.77 450.954 310.664 448.829 312.454C446.704 314.131 445.642 316.256 445.642 318.828C445.642 321.512 446.648 323.86 448.661 325.873C450.786 327.886 453.749 329.731 457.551 331.409C461.465 333.086 466.162 334.875 471.642 336.776C475.779 338.342 479.637 340.187 483.216 342.312C486.794 344.325 489.926 346.785 492.61 349.693C495.405 352.6 497.586 355.955 499.152 359.757C500.717 363.559 501.5 367.921 501.5 372.841C501.5 378.768 500.27 384.08 497.81 388.777C495.461 393.362 492.218 397.22 488.081 400.351C484.055 403.482 479.414 405.83 474.158 407.396C469.014 409.073 463.702 409.912 458.222 409.912C450.618 409.912 443.517 408.57 436.919 405.886C430.433 403.091 424.786 399.344 419.977 394.648C415.168 389.951 411.422 384.807 408.738 379.215L428.532 364.957Z" fill="white"/>
<path d="M297.161 288.802H325.51V365.628C325.51 371.555 327.075 376.363 330.206 380.054C333.338 383.744 338.034 385.589 344.297 385.589C350.671 385.589 355.424 383.744 358.555 380.054C361.686 376.363 363.252 371.555 363.252 365.628V288.802H391.6V367.641C391.6 375.021 390.37 381.452 387.91 386.931C385.561 392.411 382.207 396.94 377.845 400.518C373.596 403.985 368.564 406.613 362.748 408.402C357.045 410.191 350.895 411.086 344.297 411.086C337.699 411.086 331.548 410.191 325.845 408.402C320.142 406.613 315.11 403.985 310.748 400.518C306.499 396.94 303.144 392.411 300.684 386.931C298.335 381.452 297.161 375.021 297.161 367.641V288.802Z" fill="white"/>
<path d="M206.077 364.957C208.425 369.207 211.053 372.897 213.961 376.028C216.98 379.159 220.223 381.564 223.69 383.241C227.268 384.919 231.015 385.757 234.929 385.757C239.066 385.757 242.477 384.751 245.161 382.738C247.845 380.613 249.187 377.761 249.187 374.183C249.187 371.164 248.404 368.759 246.838 366.97C245.273 365.069 242.757 363.28 239.29 361.602C235.823 359.925 231.238 358.024 225.535 355.899C222.739 354.893 219.496 353.495 215.806 351.705C212.227 349.916 208.817 347.624 205.574 344.828C202.331 341.921 199.647 338.454 197.522 334.428C195.397 330.29 194.335 325.314 194.335 319.499C194.335 312.566 196.124 306.583 199.703 301.55C203.393 296.518 208.313 292.716 214.464 290.144C220.726 287.46 227.66 286.118 235.264 286.118C243.092 286.118 249.858 287.404 255.561 289.976C261.376 292.548 266.185 295.791 269.987 299.705C273.789 303.619 276.696 307.589 278.709 311.615L257.071 323.692C255.393 320.897 253.436 318.492 251.2 316.48C249.075 314.355 246.671 312.733 243.987 311.615C241.415 310.385 238.619 309.77 235.6 309.77C231.574 309.77 228.498 310.664 226.374 312.454C224.249 314.131 223.187 316.256 223.187 318.828C223.187 321.512 224.193 323.86 226.206 325.873C228.331 327.886 231.294 329.731 235.096 331.409C239.01 333.086 243.707 334.875 249.187 336.776C253.324 338.342 257.182 340.187 260.761 342.312C264.339 344.325 267.471 346.785 270.154 349.693C272.95 352.6 275.131 355.955 276.696 359.757C278.262 363.559 279.045 367.921 279.045 372.841C279.045 378.768 277.815 384.08 275.354 388.777C273.006 393.362 269.763 397.22 265.625 400.351C261.6 403.482 256.959 405.83 251.703 407.396C246.559 409.073 241.247 409.912 235.767 409.912C228.163 409.912 221.062 408.57 214.464 405.886C207.978 403.091 202.331 399.344 197.522 394.648C192.713 389.951 188.967 384.807 186.283 379.215L206.077 364.957Z" fill="white"/>
<path d="M139.431 288.802H168.282V406.222H139.431V288.802Z" fill="white"/>
<path d="M65.2293 358.918L93.9132 288.802H127.126L65.2293 413.602L3.5 288.802H36.5453L65.2293 358.918Z" fill="white"/>
<path d="M24.7493 443.421V465.853H28.4311V478.057H24.4084V469.603H4.15838V443.421H8.18111V465.853H20.7266V443.421H24.7493ZM45.3232 470.148C42.8004 470.148 40.6243 469.591 38.7947 468.478C36.9766 467.353 35.5732 465.784 34.5845 463.773C33.6072 461.75 33.1186 459.398 33.1186 456.716C33.1186 454.034 33.6072 451.671 34.5845 449.625C35.5732 447.568 36.9482 445.966 38.7095 444.818C40.4822 443.659 42.5504 443.08 44.9141 443.08C46.2777 443.08 47.6243 443.307 48.9538 443.762C50.2834 444.216 51.4936 444.955 52.5845 445.978C53.6754 446.989 54.5447 448.33 55.1925 450C55.8402 451.671 56.1641 453.728 56.1641 456.171V457.875H35.9822V454.398H52.0732C52.0732 452.921 51.7777 451.603 51.1868 450.443C50.6072 449.284 49.7777 448.37 48.6982 447.699C47.63 447.029 46.3686 446.693 44.9141 446.693C43.3118 446.693 41.9254 447.091 40.755 447.887C39.5959 448.671 38.7038 449.693 38.0788 450.955C37.4538 452.216 37.1413 453.568 37.1413 455.012V457.33C37.1413 459.307 37.4822 460.983 38.1641 462.358C38.8572 463.722 39.8175 464.762 41.0447 465.478C42.272 466.182 43.6982 466.534 45.3232 466.534C46.38 466.534 47.3345 466.387 48.1868 466.091C49.0504 465.784 49.7947 465.33 50.4197 464.728C51.0447 464.114 51.5277 463.353 51.8686 462.443L55.755 463.534C55.3459 464.853 54.6584 466.012 53.6925 467.012C52.7266 468 51.5334 468.773 50.1129 469.33C48.6925 469.875 47.0959 470.148 45.3232 470.148ZM79.8061 454.671V458.421H65.3516V454.671H79.8061ZM66.3061 443.421V469.603H62.2834V443.421H66.3061ZM82.8743 443.421V469.603H78.8516V443.421H82.8743ZM86.6584 447.171V443.421H107.931V447.171H99.3402V469.603H95.3175V447.171H86.6584ZM113.799 479.421V443.421H117.685V447.58H118.163C118.458 447.125 118.867 446.546 119.39 445.841C119.924 445.125 120.685 444.489 121.674 443.932C122.674 443.364 124.026 443.08 125.731 443.08C127.935 443.08 129.879 443.631 131.56 444.733C133.242 445.835 134.555 447.398 135.498 449.421C136.441 451.443 136.913 453.83 136.913 456.58C136.913 459.353 136.441 461.756 135.498 463.79C134.555 465.813 133.248 467.381 131.577 468.495C129.907 469.597 127.981 470.148 125.799 470.148C124.117 470.148 122.771 469.87 121.759 469.313C120.748 468.745 119.969 468.103 119.424 467.387C118.879 466.659 118.458 466.057 118.163 465.58H117.822V479.421H113.799ZM117.754 456.512C117.754 458.489 118.043 460.233 118.623 461.745C119.202 463.245 120.049 464.421 121.163 465.273C122.276 466.114 123.64 466.534 125.254 466.534C126.935 466.534 128.339 466.091 129.464 465.205C130.6 464.307 131.452 463.103 132.021 461.591C132.6 460.068 132.89 458.375 132.89 456.512C132.89 454.671 132.606 453.012 132.038 451.534C131.481 450.046 130.634 448.87 129.498 448.006C128.373 447.131 126.958 446.693 125.254 446.693C123.617 446.693 122.242 447.108 121.129 447.938C120.015 448.756 119.174 449.904 118.606 451.381C118.038 452.847 117.754 454.557 117.754 456.512ZM167.185 470.148C164.822 470.148 162.748 469.585 160.964 468.46C159.191 467.335 157.805 465.762 156.805 463.739C155.816 461.716 155.322 459.353 155.322 456.648C155.322 453.921 155.816 451.54 156.805 449.506C157.805 447.472 159.191 445.892 160.964 444.767C162.748 443.642 164.822 443.08 167.185 443.08C169.549 443.08 171.617 443.642 173.39 444.767C175.174 445.892 176.56 447.472 177.549 449.506C178.549 451.54 179.049 453.921 179.049 456.648C179.049 459.353 178.549 461.716 177.549 463.739C176.56 465.762 175.174 467.335 173.39 468.46C171.617 469.585 169.549 470.148 167.185 470.148ZM167.185 466.534C168.981 466.534 170.458 466.074 171.617 465.154C172.776 464.233 173.634 463.023 174.191 461.523C174.748 460.023 175.026 458.398 175.026 456.648C175.026 454.898 174.748 453.267 174.191 451.756C173.634 450.245 172.776 449.023 171.617 448.091C170.458 447.159 168.981 446.693 167.185 446.693C165.39 446.693 163.913 447.159 162.754 448.091C161.594 449.023 160.737 450.245 160.18 451.756C159.623 453.267 159.344 454.898 159.344 456.648C159.344 458.398 159.623 460.023 160.18 461.523C160.737 463.023 161.594 464.233 162.754 465.154C163.913 466.074 165.39 466.534 167.185 466.534ZM187.112 443.421L193.384 454.125L199.657 443.421H204.293L195.839 456.512L204.293 469.603H199.657L193.384 459.443L187.112 469.603H182.475L190.793 456.512L182.475 443.421H187.112ZM210.033 479.421V443.421H213.92V447.58H214.397C214.692 447.125 215.102 446.546 215.624 445.841C216.158 445.125 216.92 444.489 217.908 443.932C218.908 443.364 220.261 443.08 221.965 443.08C224.17 443.08 226.113 443.631 227.795 444.733C229.477 445.835 230.789 447.398 231.732 449.421C232.675 451.443 233.147 453.83 233.147 456.58C233.147 459.353 232.675 461.756 231.732 463.79C230.789 465.813 229.482 467.381 227.812 468.495C226.141 469.597 224.215 470.148 222.033 470.148C220.352 470.148 219.005 469.87 217.994 469.313C216.982 468.745 216.204 468.103 215.658 467.387C215.113 466.659 214.692 466.057 214.397 465.58H214.056V479.421H210.033ZM213.988 456.512C213.988 458.489 214.278 460.233 214.857 461.745C215.437 463.245 216.283 464.421 217.397 465.273C218.511 466.114 219.874 466.534 221.488 466.534C223.17 466.534 224.573 466.091 225.698 465.205C226.835 464.307 227.687 463.103 228.255 461.591C228.835 460.068 229.124 458.375 229.124 456.512C229.124 454.671 228.84 453.012 228.272 451.534C227.715 450.046 226.869 448.87 225.732 448.006C224.607 447.131 223.192 446.693 221.488 446.693C219.852 446.693 218.477 447.108 217.363 447.938C216.249 448.756 215.408 449.904 214.84 451.381C214.272 452.847 213.988 454.557 213.988 456.512ZM246.988 470.216C245.329 470.216 243.823 469.904 242.471 469.279C241.119 468.642 240.045 467.728 239.249 466.534C238.454 465.33 238.056 463.875 238.056 462.171C238.056 460.671 238.352 459.455 238.942 458.523C239.533 457.58 240.323 456.841 241.312 456.307C242.3 455.773 243.391 455.375 244.585 455.114C245.789 454.841 246.999 454.625 248.215 454.466C249.806 454.262 251.096 454.108 252.085 454.006C253.085 453.892 253.812 453.705 254.266 453.443C254.732 453.182 254.965 452.728 254.965 452.08V451.943C254.965 450.262 254.505 448.955 253.585 448.023C252.675 447.091 251.295 446.625 249.442 446.625C247.522 446.625 246.016 447.046 244.925 447.887C243.835 448.728 243.067 449.625 242.624 450.58L238.806 449.216C239.488 447.625 240.397 446.387 241.533 445.5C242.681 444.603 243.931 443.978 245.283 443.625C246.647 443.262 247.988 443.08 249.306 443.08C250.147 443.08 251.113 443.182 252.204 443.387C253.306 443.58 254.369 443.983 255.391 444.597C256.425 445.21 257.283 446.137 257.965 447.375C258.647 448.614 258.988 450.273 258.988 452.353V469.603H254.965V466.057H254.761C254.488 466.625 254.033 467.233 253.397 467.881C252.761 468.529 251.914 469.08 250.857 469.534C249.8 469.989 248.511 470.216 246.988 470.216ZM247.602 466.603C249.192 466.603 250.533 466.29 251.624 465.665C252.727 465.04 253.556 464.233 254.113 463.245C254.681 462.256 254.965 461.216 254.965 460.125V456.443C254.795 456.648 254.42 456.835 253.84 457.006C253.272 457.165 252.613 457.307 251.863 457.432C251.124 457.546 250.403 457.648 249.698 457.739C249.005 457.818 248.442 457.887 248.011 457.943C246.965 458.08 245.988 458.301 245.079 458.608C244.181 458.904 243.454 459.353 242.897 459.955C242.352 460.546 242.079 461.353 242.079 462.375C242.079 463.773 242.596 464.83 243.63 465.546C244.675 466.25 245.999 466.603 247.602 466.603ZM283.853 454.671V458.421H269.398V454.671H283.853ZM270.353 443.421V469.603H266.33V443.421H270.353ZM286.921 443.421V469.603H282.898V443.421H286.921ZM297.745 452.898H305.245C308.313 452.898 310.66 453.676 312.285 455.233C313.91 456.79 314.722 458.762 314.722 461.148C314.722 462.716 314.359 464.142 313.631 465.426C312.904 466.699 311.836 467.716 310.427 468.478C309.018 469.228 307.29 469.603 305.245 469.603H294.268V443.421H298.29V465.853H305.245C306.836 465.853 308.143 465.432 309.165 464.591C310.188 463.75 310.7 462.671 310.7 461.353C310.7 459.966 310.188 458.835 309.165 457.96C308.143 457.085 306.836 456.648 305.245 456.648H297.745V452.898ZM318.881 469.603V443.421H322.904V469.603H318.881ZM342.131 462.921H346.427C346.518 464.103 347.052 465 348.029 465.614C349.018 466.228 350.302 466.534 351.881 466.534C353.495 466.534 354.876 466.205 356.023 465.546C357.171 464.875 357.745 463.796 357.745 462.307C357.745 461.432 357.529 460.671 357.097 460.023C356.665 459.364 356.058 458.853 355.273 458.489C354.489 458.125 353.563 457.943 352.495 457.943H347.995V454.33H352.495C354.097 454.33 355.279 453.966 356.04 453.239C356.813 452.512 357.2 451.603 357.2 450.512C357.2 449.341 356.785 448.404 355.955 447.699C355.126 446.983 353.95 446.625 352.427 446.625C350.893 446.625 349.614 446.972 348.592 447.665C347.569 448.347 347.029 449.228 346.972 450.307H342.745C342.79 448.898 343.222 447.654 344.04 446.574C344.859 445.483 345.972 444.631 347.381 444.017C348.79 443.392 350.404 443.08 352.222 443.08C354.063 443.08 355.66 443.404 357.012 444.051C358.376 444.688 359.427 445.557 360.165 446.659C360.915 447.75 361.29 448.989 361.29 450.375C361.29 451.853 360.876 453.046 360.046 453.955C359.217 454.864 358.177 455.512 356.927 455.898V456.171C357.915 456.239 358.773 456.557 359.501 457.125C360.239 457.682 360.813 458.415 361.222 459.324C361.631 460.222 361.836 461.216 361.836 462.307C361.836 463.898 361.41 465.284 360.558 466.466C359.705 467.637 358.535 468.546 357.046 469.193C355.558 469.83 353.859 470.148 351.95 470.148C350.097 470.148 348.438 469.847 346.972 469.245C345.506 468.631 344.342 467.784 343.478 466.705C342.626 465.614 342.177 464.353 342.131 462.921ZM367.487 479.421V443.421H371.373V447.58H371.85C372.146 447.125 372.555 446.546 373.077 445.841C373.612 445.125 374.373 444.489 375.362 443.932C376.362 443.364 377.714 443.08 379.418 443.08C381.623 443.08 383.566 443.631 385.248 444.733C386.93 445.835 388.242 447.398 389.185 449.421C390.129 451.443 390.6 453.83 390.6 456.58C390.6 459.353 390.129 461.756 389.185 463.79C388.242 465.813 386.935 467.381 385.265 468.495C383.594 469.597 381.668 470.148 379.487 470.148C377.805 470.148 376.458 469.87 375.447 469.313C374.435 468.745 373.657 468.103 373.112 467.387C372.566 466.659 372.146 466.057 371.85 465.58H371.509V479.421H367.487ZM371.441 456.512C371.441 458.489 371.731 460.233 372.31 461.745C372.89 463.245 373.737 464.421 374.85 465.273C375.964 466.114 377.327 466.534 378.941 466.534C380.623 466.534 382.026 466.091 383.151 465.205C384.288 464.307 385.14 463.103 385.708 461.591C386.288 460.068 386.577 458.375 386.577 456.512C386.577 454.671 386.293 453.012 385.725 451.534C385.168 450.046 384.322 448.87 383.185 448.006C382.06 447.131 380.646 446.693 378.941 446.693C377.305 446.693 375.93 447.108 374.816 447.938C373.702 448.756 372.862 449.904 372.293 451.381C371.725 452.847 371.441 454.557 371.441 456.512ZM407.714 470.148C405.191 470.148 403.015 469.591 401.185 468.478C399.367 467.353 397.964 465.784 396.975 463.773C395.998 461.75 395.509 459.398 395.509 456.716C395.509 454.034 395.998 451.671 396.975 449.625C397.964 447.568 399.339 445.966 401.1 444.818C402.873 443.659 404.941 443.08 407.305 443.08C408.668 443.08 410.015 443.307 411.344 443.762C412.674 444.216 413.884 444.955 414.975 445.978C416.066 446.989 416.935 448.33 417.583 450C418.231 451.671 418.555 453.728 418.555 456.171V457.875H398.373V454.398H414.464C414.464 452.921 414.168 451.603 413.577 450.443C412.998 449.284 412.168 448.37 411.089 447.699C410.021 447.029 408.759 446.693 407.305 446.693C405.702 446.693 404.316 447.091 403.146 447.887C401.987 448.671 401.094 449.693 400.469 450.955C399.844 452.216 399.532 453.568 399.532 455.012V457.33C399.532 459.307 399.873 460.983 400.555 462.358C401.248 463.722 402.208 464.762 403.435 465.478C404.663 466.182 406.089 466.534 407.714 466.534C408.771 466.534 409.725 466.387 410.577 466.091C411.441 465.784 412.185 465.33 412.81 464.728C413.435 464.114 413.918 463.353 414.259 462.443L418.146 463.534C417.737 464.853 417.049 466.012 416.083 467.012C415.117 468 413.924 468.773 412.504 469.33C411.083 469.875 409.487 470.148 407.714 470.148ZM442.197 454.671V458.421H427.742V454.671H442.197ZM428.697 443.421V469.603H424.674V443.421H428.697ZM445.265 443.421V469.603H441.242V443.421H445.265ZM456.634 463.671L469.248 443.421H473.884V469.603H469.862V449.353L457.316 469.603H452.612V443.421H456.634V463.671ZM497.002 469.603V447.103H490.048C488.479 447.103 487.246 447.466 486.349 448.193C485.451 448.921 485.002 449.921 485.002 451.193C485.002 452.443 485.406 453.426 486.212 454.142C487.031 454.858 488.15 455.216 489.57 455.216H498.025V458.966H489.57C487.798 458.966 486.269 458.654 484.985 458.029C483.701 457.404 482.712 456.512 482.019 455.353C481.326 454.182 480.979 452.796 480.979 451.193C480.979 449.58 481.343 448.193 482.07 447.034C482.798 445.875 483.837 444.983 485.19 444.358C486.553 443.733 488.173 443.421 490.048 443.421H500.82V469.603H497.002ZM479.548 469.603L486.979 456.58H491.343L483.911 469.603H479.548Z" fill="white"/>
</svg>
